<svg width="384" height="432" viewBox="0 0 384 432" fill="none" xmlns="http://www.w3.org/2000/svg">
<path d="M376.98 119.02L264.98 7.02001C262.75 4.79198 260.102 3.02525 257.188 1.82073C254.275 0.616218 251.153 -0.00247166 248 7.42079e-06H56C45.3913 7.42079e-06 35.2172 4.21428 27.7157 11.7157C20.2143 19.2172 16 29.3913 16 40V176C16 182.365 18.5286 188.47 23.0294 192.971C27.5303 197.471 33.6348 200 40 200C46.3652 200 52.4697 197.471 56.9706 192.971C61.4714 188.47 64 182.365 64 176V48H216V144C216 150.365 218.529 156.47 223.029 160.971C227.53 165.471 233.635 168 240 168H336V384C329.635 384 323.53 386.529 319.029 391.029C314.529 395.53 312 401.635 312 408C312 414.365 314.529 420.47 319.029 424.971C323.53 429.471 329.635 432 336 432H344C354.609 432 364.783 427.786 372.284 420.284C379.786 412.783 384 402.609 384 392V136C384.002 132.847 383.384 129.725 382.179 126.812C380.975 123.898 379.208 121.251 376.98 119.02ZM264 74L310 120H264V74ZM260.18 243.38C256.577 241.257 252.482 240.113 248.3 240.06C244.118 240.008 239.995 241.049 236.34 243.08L197 264.88C193.999 257.529 188.877 251.237 182.288 246.807C175.699 242.376 167.94 240.006 160 240H40C29.3913 240 19.2172 244.214 11.7157 251.716C4.21427 259.217 0 269.391 0 280V376C0 386.609 4.21427 396.783 11.7157 404.284C19.2172 411.786 29.3913 416 40 416H160C167.94 415.994 175.699 413.624 182.288 409.193C188.877 404.763 193.999 398.471 197 391.12L236.34 412.98C239.994 415.011 244.114 416.052 248.294 416.001C252.473 415.95 256.567 414.808 260.17 412.688C263.773 410.569 266.759 407.545 268.834 403.916C270.909 400.288 272 396.18 272 392V264C272 259.822 270.91 255.717 268.837 252.09C266.764 248.463 263.78 245.44 260.18 243.32V243.38ZM152 368H48V288H152V368ZM224 351.22L200 337.88V318.12L224 304.78V351.22Z" fill="#8090BF"/>
</svg>
