<svg width="248" height="248" viewBox="0 0 248 248" fill="none" xmlns="http://www.w3.org/2000/svg">
<g id="hugeicons:chatting-01">
<g id="Group">
<path id="Vector" d="M206.667 92.9998C198.452 51.8215 160.301 20.6665 114.493 20.6665C62.6613 20.6665 20.6666 60.5015 20.6666 109.636C20.6666 133.248 30.3593 154.69 46.1796 170.603C49.6516 174.117 51.9766 178.901 51.0363 183.83C49.5086 191.845 46.0068 199.353 40.8476 205.674C54.3684 208.124 68.3201 205.974 80.476 199.567C84.7333 197.315 86.8723 196.199 88.3706 195.972C89.4246 195.806 90.799 195.961 93 196.333" stroke="white" stroke-width="20" stroke-linecap="round" stroke-linejoin="round"/>
<path id="Vector_2" d="M113.667 168.04C113.667 198.059 139.118 222.404 170.5 222.404C174.199 222.404 177.864 222.067 181.495 221.392C184.109 220.906 185.411 220.658 186.32 220.792C187.23 220.937 188.521 221.619 191.105 222.993C198.4 226.879 206.915 228.253 215.109 226.724C211.973 222.859 209.85 218.274 208.93 213.383C208.361 210.366 209.767 207.442 211.885 205.303C221.753 195.409 227.307 182.014 227.333 168.04C227.333 138.012 201.882 113.667 170.5 113.667C139.118 113.667 113.667 138.012 113.667 168.04Z" stroke="white" stroke-width="20" stroke-linecap="round" stroke-linejoin="round"/>
</g>
</g>
</svg>
