<svg width="256" height="257" viewBox="0 0 256 257" fill="none" xmlns="http://www.w3.org/2000/svg">
<g id="ph:x-bold">
<path id="Vector" d="M188.681 45.2864L128 105.977L67.3389 45.2966L67.3385 45.2961C64.334 42.2917 60.259 40.6037 56.0101 40.6037C51.7611 40.6037 47.6861 42.2917 44.6816 45.2961C41.6771 48.3006 39.9892 52.3756 39.9892 56.6246C39.9892 60.8733 41.677 64.9481 44.6812 67.9525C44.6813 67.9527 44.6815 67.9528 44.6816 67.953L105.343 128.634L44.6621 189.296L44.6616 189.296C41.6571 192.301 39.9692 196.376 39.9692 200.625C39.9692 204.874 41.6571 208.949 44.6616 211.953C47.6661 214.957 51.7411 216.645 55.9901 216.645C60.239 216.645 64.314 214.957 67.3185 211.953L127.999 151.291L188.661 211.973L188.662 211.973C191.666 214.977 195.741 216.665 199.99 216.665C204.239 216.665 208.314 214.977 211.318 211.973C214.323 208.969 216.011 204.894 216.011 200.645C216.011 196.396 214.323 192.321 211.319 189.317C211.319 189.316 211.319 189.316 211.318 189.316L150.656 128.635L211.338 67.943C214.343 64.9385 216.031 60.8635 216.031 56.6146C216.031 52.3656 214.343 48.2906 211.338 45.2861C208.334 42.2816 204.259 40.5938 200.01 40.5938C195.761 40.5938 191.686 42.2816 188.682 45.2861L188.681 45.2864Z" fill="white" stroke="white" stroke-width="8"/>
</g>
</svg>
