<svg width="207" height="207" viewBox="0 0 207 207" fill="none" xmlns="http://www.w3.org/2000/svg">
<path id="comment" d="M103.606 194.254C121.578 194.254 139.147 188.925 154.09 178.94C169.034 168.955 180.68 154.763 187.558 138.159C194.436 121.555 196.235 103.285 192.729 85.6578C189.223 68.031 180.568 51.8397 167.86 39.1315C155.152 26.4233 138.961 17.7688 121.334 14.2627C103.707 10.7565 85.4364 12.556 68.8323 19.4336C52.2282 26.3113 38.0365 37.9581 28.0517 52.9014C18.0669 67.8447 12.7375 85.4132 12.7375 103.385C12.7375 118.409 16.3723 132.574 22.8341 145.054L12.7375 194.254L61.9379 184.158C74.4172 190.619 88.5928 194.254 103.606 194.254Z" stroke="white" stroke-width="24" stroke-linecap="round" stroke-linejoin="round"/>
</svg>
