<svg width="233" height="201" viewBox="0 0 233 201" fill="none" xmlns="http://www.w3.org/2000/svg">
<g id="heart_filled">
<path id="Rectangle 4358" d="M18.1247 47.6534C20.9756 36.3883 29.9886 27.7272 41.3583 25.327L59.9001 21.4126C72.0043 18.8573 84.6241 20.7584 95.4383 26.7663V26.7663C109.515 34.5867 126.445 35.3495 141.168 28.8267L148.614 25.5278C160.335 20.335 173.584 19.7576 185.712 23.9111L193.467 26.567C205.118 30.557 213.918 40.2297 216.792 52.2048V52.2048C218.632 59.8705 217.903 67.9284 214.716 75.1393L192.319 125.828C187.071 137.706 178.11 147.56 166.784 153.912L143.815 166.791C127.423 175.983 107.67 176.964 90.4481 169.439L76.489 163.341C61.9756 157 50.5579 145.178 44.7259 130.453L19.3338 66.3398C16.9783 60.3926 16.5553 53.8546 18.1247 47.6534V47.6534Z" fill="#FD5D3F"/>
<path id="Vector" d="M166.738 0.253906C146.648 0.253906 128.818 8.18391 116.738 21.8139C104.658 8.18391 86.8275 0.253906 66.7375 0.253906C49.2398 0.275077 32.4647 7.23543 20.0919 19.6082C7.71907 31.9811 0.75872 48.7561 0.737549 66.2539C0.737549 138.594 106.548 196.394 111.048 198.824C112.796 199.766 114.751 200.259 116.738 200.259C118.724 200.259 120.679 199.766 122.428 198.824C126.928 196.394 232.738 138.594 232.738 66.2539C232.716 48.7561 225.756 31.9811 213.383 19.6082C201.01 7.23543 184.235 0.275077 166.738 0.253906ZM161.248 142.614C147.32 154.432 132.432 165.069 116.738 174.414C101.043 165.069 86.1549 154.432 72.2275 142.614C50.5575 124.024 24.7375 95.6739 24.7375 66.2539C24.7375 55.1148 29.1625 44.4319 37.0391 36.5554C44.9156 28.6789 55.5985 24.2539 66.7375 24.2539C84.5375 24.2539 99.4375 33.6539 105.628 48.7939C106.528 51.001 108.066 52.8897 110.045 54.2192C112.024 55.5487 114.354 56.2587 116.738 56.2587C119.121 56.2587 121.451 55.5487 123.43 54.2192C125.409 52.8897 126.947 51.001 127.848 48.7939C134.038 33.6539 148.938 24.2539 166.738 24.2539C177.877 24.2539 188.56 28.6789 196.436 36.5554C204.313 44.4319 208.738 55.1148 208.738 66.2539C208.738 95.6739 182.918 124.024 161.248 142.614Z" fill="white"/>
</g>
</svg>

