<svg width="233" height="200" viewBox="0 0 233 200" fill="none" xmlns="http://www.w3.org/2000/svg">
<path id="heart_notfilled" d="M166.738 -0.00488281C146.648 -0.00488281 128.818 7.92512 116.738 21.5551C104.658 7.92512 86.8275 -0.00488281 66.7375 -0.00488281C49.2398 0.0162882 32.4647 6.97664 20.0919 19.3495C7.71907 31.7223 0.75872 48.4973 0.737549 65.9951C0.737549 138.335 106.548 196.135 111.048 198.565C112.796 199.507 114.751 200 116.738 200C118.724 200 120.679 199.507 122.428 198.565C126.928 196.135 232.738 138.335 232.738 65.9951C232.716 48.4973 225.756 31.7223 213.383 19.3495C201.01 6.97664 184.235 0.0162882 166.738 -0.00488281ZM161.248 142.355C147.32 154.173 132.432 164.81 116.738 174.155C101.043 164.81 86.1549 154.173 72.2275 142.355C50.5575 123.765 24.7375 95.4151 24.7375 65.9951C24.7375 54.856 29.1625 44.1732 37.0391 36.2966C44.9156 28.4201 55.5985 23.9951 66.7375 23.9951C84.5375 23.9951 99.4375 33.3951 105.628 48.5351C106.528 50.7422 108.066 52.6309 110.045 53.9604C112.024 55.2899 114.354 55.9999 116.738 55.9999C119.121 55.9999 121.451 55.2899 123.43 53.9604C125.409 52.6309 126.947 50.7422 127.848 48.5351C134.038 33.3951 148.938 23.9951 166.738 23.9951C177.877 23.9951 188.56 28.4201 196.436 36.2966C204.313 44.1732 208.738 54.856 208.738 65.9951C208.738 95.4151 182.918 123.765 161.248 142.355Z" fill="white"/>
</svg>
