<svg width="256" height="256" viewBox="0 0 256 256" fill="none" xmlns="http://www.w3.org/2000/svg">
<g id="ph:bell-bold">
<g id="Vector" filter="url(#filter0_d_809_2954)">
<path d="M225.29 165.93C216.61 151 212 129.57 212 104C212 81.7218 203.15 60.3561 187.397 44.603C171.644 28.85 150.278 20 128 20C105.722 20 84.3561 28.85 68.6031 44.603C52.85 60.3561 44 81.7218 44 104C44 129.58 39.41 151 30.73 165.93C28.9588 168.975 28.02 172.433 28.0077 175.956C27.9954 179.478 28.9101 182.943 30.66 186C32.3989 189.059 34.9227 191.599 37.9709 193.357C41.0191 195.115 44.4813 196.027 48 196H84.18C85.1723 206.936 90.2182 217.106 98.3263 224.512C106.434 231.918 117.019 236.024 128 236.024C138.981 236.024 149.566 231.918 157.674 224.512C165.782 217.106 170.828 206.936 171.82 196H208C211.514 196.022 214.97 195.107 218.012 193.349C221.055 191.591 223.574 189.055 225.31 186C227.068 182.947 227.991 179.485 227.987 175.962C227.984 172.44 227.054 168.98 225.29 165.93ZM128 212C123.389 212.001 118.92 210.409 115.348 207.493C111.777 204.578 109.322 200.517 108.4 196H147.6C146.678 200.517 144.223 204.578 140.652 207.493C137.08 210.409 132.611 212.001 128 212ZM54.66 172C63.51 154 68 131.14 68 104C68 88.087 74.3214 72.8258 85.5736 61.5736C96.8258 50.3214 112.087 44 128 44C143.913 44 159.174 50.3214 170.426 61.5736C181.679 72.8258 188 88.087 188 104C188 131.13 192.48 154 201.33 172H54.66Z" fill="#8090BF"/>
</g>
</g>
<defs>
<filter id="filter0_d_809_2954" x="24.0076" y="20" width="207.98" height="224.024" filterUnits="userSpaceOnUse" color-interpolation-filters="sRGB">
<feFlood flood-opacity="0" result="BackgroundImageFix"/>
<feColorMatrix in="SourceAlpha" type="matrix" values="0 0 0 0 0 0 0 0 0 0 0 0 0 0 0 0 0 0 127 0" result="hardAlpha"/>
<feOffset dy="4"/>
<feGaussianBlur stdDeviation="2"/>
<feComposite in2="hardAlpha" operator="out"/>
<feColorMatrix type="matrix" values="0 0 0 0 0 0 0 0 0 0 0 0 0 0 0 0 0 0 0.25 0"/>
<feBlend mode="normal" in2="BackgroundImageFix" result="effect1_dropShadow_809_2954"/>
<feBlend mode="normal" in="SourceGraphic" in2="effect1_dropShadow_809_2954" result="shape"/>
</filter>
</defs>
</svg>
