<svg width="154" height="154" viewBox="0 0 154 154" fill="none" xmlns="http://www.w3.org/2000/svg">
<g id="mage:video-upload">
<g id="Group">
<path id="Vector" d="M58.0516 60.9585V93.0418" stroke="#8090BF" stroke-width="10" stroke-miterlimit="10" stroke-linecap="round"/>
<path id="Vector_2" d="M72.765 74.4656L60.1434 61.844C59.8701 61.568 59.5448 61.3488 59.1863 61.1992C58.8278 61.0497 58.4432 60.9727 58.0548 60.9727C57.6663 60.9727 57.2817 61.0497 56.9232 61.1992C56.5647 61.3488 56.2394 61.568 55.9661 61.844L43.3381 74.4656" stroke="#8090BF" stroke-width="10" stroke-linecap="round" stroke-linejoin="round"/>
<path id="Vector_3" d="M77 34.1367H39.1096C36.076 34.1367 33.0721 34.7351 30.27 35.8976C27.4679 37.06 24.9227 38.7638 22.7799 40.9113C20.6372 43.0588 18.9391 45.6078 17.7829 48.4125C16.6266 51.2171 16.0349 54.2223 16.0417 57.256V96.7955C16.0417 102.913 18.472 108.781 22.7981 113.107C24.9402 115.249 27.4832 116.948 30.2819 118.107C33.0806 119.267 36.0803 119.863 39.1096 119.863H77C83.118 119.863 88.9854 117.433 93.3115 113.107C97.6376 108.781 100.068 102.913 100.068 96.7955V57.2624C100.076 54.228 99.4859 51.2217 98.3303 48.4159C97.1747 45.6102 95.4768 43.06 93.3338 40.9117C91.1909 38.7633 88.645 37.059 85.8421 35.8964C83.0392 34.7339 80.0344 34.1359 77 34.1367ZM137.958 60.5605V93.5101C137.958 95.1143 137.503 96.6928 136.643 98.0531C135.773 99.4186 134.54 100.514 133.082 101.217C131.634 101.941 130.003 102.218 128.398 102.012C126.814 101.824 125.312 101.207 124.053 100.228L103.36 83.622C102.365 82.805 101.56 81.7804 101.003 80.6199C100.445 79.4594 100.148 78.1911 100.132 76.9038C100.132 75.6205 100.421 74.3628 100.986 73.2142C101.576 72.1362 102.384 71.193 103.36 70.4422L124.053 53.9706C125.313 52.9892 126.818 52.3722 128.404 52.1868C130.008 51.9815 131.638 52.2574 133.082 52.9825C134.523 53.6618 135.744 54.7324 136.607 56.0723C137.469 57.4121 137.937 58.9673 137.958 60.5605Z" stroke="#8090BF" stroke-width="10" stroke-linecap="round" stroke-linejoin="round"/>
</g>
</g>
</svg>
